PathFileType	4	(X/Y/Z)	/Users/itak/Documents/Research/Walk-IL/dataset/trc/00238_00009.trc
DataRate	CameraRate	NumFrames	NumMarkers	Units	OrigDataRate	OrigDataStartFrame	OrigNumFrames
100.000000	100.000000	4	53	mm	100.000000	413	827
Frame#	Time	RPSI			LPSI			L3			STRN			T10			C7			CLAV			RBAK			LBAK			LSHO			LUPA			LAEL			LAOL			LWTS			LWPS			LFRA			LIFD			LHPS			LHTS			RSHO			RUPA			RAEL			RAOL			RWTS			RWPS			RFRA			RIFD			RHTS			RHPS			RBHD			LFHD			RFHD			LBHD			LHIP			RHIP			RASI			LASI			LKNE			LTHI			LANK			LTIP			LTOE			LMT1			LMT5			LHEE			RKNE			RTHI			RANK			RTIP			RTOE			RMT1			RMT5			RHEE			
		X1	Y1	Z1	X2	Y2	Z2	X3	Y3	Z3	X4	Y4	Z4	X5	Y5	Z5	X6	Y6	Z6	X7	Y7	Z7	X8	Y8	Z8	X9	Y9	Z9	X10	Y10	Z10	X11	Y11	Z11	X12	Y12	Z12	X13	Y13	Z13	X14	Y14	Z14	X15	Y15	Z15	X16	Y16	Z16	X17	Y17	Z17	X18	Y18	Z18	X19	Y19	Z19	X20	Y20	Z20	X21	Y21	Z21	X22	Y22	Z22	X23	Y23	Z23	X24	Y24	Z24	X25	Y25	Z25	X26	Y26	Z26	X27	Y27	Z27	X28	Y28	Z28	X29	Y29	Z29	X30	Y30	Z30	X31	Y31	Z31	X32	Y32	Z32	X33	Y33	Z33	X34	Y34	Z34	X35	Y35	Z35	X36	Y36	Z36	X37	Y37	Z37	X38	Y38	Z38	X39	Y39	Z39	X40	Y40	Z40	X41	Y41	Z41	X42	Y42	Z42	X43	Y43	Z43	X44	Y44	Z44	X45	Y45	Z45	X46	Y46	Z46	X47	Y47	Z47	X48	Y48	Z48	X49	Y49	Z49	X50	Y50	Z50	X51	Y51	Z51	X52	Y52	Z52	X53	Y53	Z53	

414	4.13	-258.652587890625	1026.40771484375	-469.9718322753906	-282.7760009765625	1033.0361328125	-587.7161865234375	-273.7272338867188	1119.591674804688	-534.38818359375	-18.95356559753418	1291.615112304688	-594.4783935546875	-264.4923095703125	1245.918823242188	-520.3641357421875	-188.0018463134766	1502.892944335938	-528.6587524414062	-35.86723327636719	1410.487548828125	-581.4165649414062	-248.8414154052734	1365.046630859375	-440.136962890625	-242.0105285644531	1471.617919921875	-628.2965087890625	-175.1927642822266	1471.700073242188	-710.7752075195312	-247.5720672607422	1361.554443359375	-774.8649291992188	-285.6947021484375	1154.362915039062	-797.6528930664062	-336.5808715820312	1151.333740234375	-726.6961669921875	-238.2116851806641	902.396484375	-768.1671142578125	-291.5587768554688	897.4368896484375	-833.4313354492188	-294.2182922363281	1045.75390625	-815.3349609375	-279.7939453125	709.2249755859375	-781.7051391601562	-295.7911987304688	807.6846313476562	-834.526611328125	-240.6986236572266	795.5584106445312	-796.7958984375	-86.1331787109375	1450.741088867188	-386.922607421875	-88.95252990722656	1384.337890625	-318.2477416992188	-109.0983810424805	1102.441528320312	-281.7888488769531	-169.0711669921875	1099.582275390625	-356.1651000976562	24.82463264465332	912.593505859375	-390.9411926269531	-4.479234218597412	883.1615600585938	-316.8438720703125	-75.48640441894531	1034.629638671875	-285.1860961914062	61.82400894165039	724.7759399414062	-426.214111328125	81.42829895019531	798.4644165039062	-402.9080810546875	44.49531936645508	784.4216918945312	-342.1008911132812	-148.0010528564453	1647.481079101562	-494.44384765625	43.71323776245117	1703.5546875	-602.7483520507812	52.16715240478516	1695.10302734375	-503.621826171875	-115.1178588867188	1665.781127929688	-629.4408569335938	-207.1471099853516	977.3219604492188	-745.5192260742188	-143.4584503173828	981.05078125	-384.093017578125	-54.66741561889648	1025.388671875	-438.1605529785156	-100.628532409668	1018.293395996094	-714.556640625	-16.3566722869873	522.4016723632812	-781.063720703125	-71.03407287597656	658.130126953125	-788.44287109375	-270.6423950195312	109.4774475097656	-824.121826171875	-137.5152740478516	331.0883483886719	-810.1351318359375	-62.56599044799805	53.33304977416992	-839.3282470703125	-114.817756652832	51.09833145141602	-778.4236450195312	-162.7684478759766	76.14340209960938	-879.7840576171875	-310.49951171875	124.0259323120117	-757.1746826171875	-115.1673202514648	496.69287109375	-508.2699584960938	-85.17192840576172	753.5768432617188	-418.7702331542969	-225.7594451904297	31.62415504455566	-596.4722900390625	-119.4665603637695	380.0759887695312	-549.2734375	-28.88986015319824	41.86870574951172	-684.5060424804688	-92.87040710449219	37.9847297668457	-715.1513061523438	-112.1656188964844	35.79953765869141	-596.4722900390625	-298.0651245117188	30.23615264892578	-640.2478637695312	
415	4.14	-254.1379699707031	1026.596313476562	-473.0335998535156	-276.3931579589844	1033.441650390625	-591.2102661132812	-267.7950744628906	1119.816284179688	-537.53125	-12.11617374420166	1291.42041015625	-593.9448852539062	-258.6710815429688	1246.107299804688	-523.1235961914062	-181.7646331787109	1502.912109375	-530.4777221679688	-29.06113815307617	1410.334228515625	-581.2424926757812	-243.8009338378906	1365.220092773438	-442.5560607910156	-234.6488800048828	1471.56201171875	-630.711181640625	-166.6598358154297	1471.530517578125	-712.3867797851562	-238.3287353515625	1361.459106445312	-777.3978881835938	-276.6090393066406	1154.362548828125	-800.4769897460938	-328.7273254394531	1151.7392578125	-730.34619140625	-232.1844024658203	901.8521118164062	-769.9274291992188	-284.3533935546875	897.4326171875	-836.1654052734375	-285.72216796875	1045.83447265625	-818.156982421875	-276.7237854003906	709.21044921875	-783.1896362304688	-290.01416015625	807.6700439453125	-836.9200439453125	-236.0353240966797	794.68505859375	-797.8579711914062	-81.62065887451172	1450.850708007812	-387.4007568359375	-85.22361755371094	1384.448364257812	-318.8067321777344	-105.6114807128906	1102.511962890625	-282.5547790527344	-165.0383148193359	1099.701293945312	-357.4620666503906	29.55451011657715	913.0228881835938	-390.6887512207031	-0.3434022963047028	883.4172973632812	-316.9115295410156	-71.85165405273438	1034.75244140625	-285.682373046875	67.28277587890625	725.35009765625	-425.9684448242188	86.55403137207031	799.0941772460938	-402.3265380859375	49.03773880004883	784.8182373046875	-341.8876342773438	-142.1191558837891	1647.468505859375	-495.9134826660156	50.82661819458008	1703.435424804688	-601.90087890625	58.15290069580078	1695.076171875	-502.7109375	-107.6234817504883	1665.666137695312	-630.494384765625	-198.2500610351562	977.5606689453125	-747.6183471679688	-140.8040924072266	980.9345703125	-385.1671142578125	-50.81157684326172	1025.225708007812	-437.7108459472656	-92.19395446777344	1018.438354492188	-714.731201171875	-4.227020263671875	523.572998046875	-778.2446899414062	-59.89952087402344	658.76171875	-787.236328125	-241.6365356445312	102.17919921875	-831.6800537109375	-117.7162551879883	328.140625	-812.3128051757812	-31.37190628051758	53.67170715332031	-841.1339111328125	-85.32749938964844	48.82491683959961	-781.9817504882812	-130.8724517822266	73.85311126708984	-884.43505859375	-284.1942138671875	114.1617050170898	-765.8494873046875	-113.5741424560547	496.3475952148438	-508.36962890625	-82.76131439208984	753.1815185546875	-419.0944213867188	-225.7923126220703	31.65690994262695	-596.5202026367188	-118.1035079956055	379.7357177734375	-549.2779541015625	-28.87640380859375	41.74208068847656	-684.6442260742188	-92.92742156982422	37.8364372253418	-715.0903930664062	-112.1549987792969	35.71793746948242	-596.3934936523438	-298.094970703125	30.34379196166992	-640.3004760742188	
416	4.15	-249.491455078125	1026.742309570312	-476.001708984375	-269.9537048339844	1033.815307617188	-594.5657958984375	-261.8147583007812	1120.0244140625	-540.5708618164062	-5.259797096252441	1291.192993164062	-593.3170166015625	-252.8031311035156	1246.259033203125	-525.8070678710938	-175.5205688476562	1502.901611328125	-532.2842407226562	-22.22787475585938	1410.148559570312	-580.9802856445312	-238.7297058105469	1365.371704101562	-444.9709167480469	-227.2073516845703	1471.48681640625	-633.0903930664062	-158.0229797363281	1471.342407226562	-713.9237060546875	-228.9454498291016	1361.341064453125	-779.8648071289062	-267.342529296875	1154.333374023438	-803.256591796875	-320.6123046875	1152.050659179688	-733.9403076171875	-225.6864013671875	901.3338012695312	-771.8548583984375	-276.723388671875	897.4242553710938	-838.9950561523438	-276.9356994628906	1045.894287109375	-820.9894409179688	-273.1181640625	709.2644653320312	-784.8785400390625	-283.7817077636719	807.6763916015625	-839.4457397460938	-230.8443450927734	793.90673828125	-799.1591186523438	-77.10964202880859	1450.947998046875	-387.8276977539062	-81.53078460693359	1384.549560546875	-319.3318786621094	-102.1512756347656	1102.576782226562	-283.3043212890625	-161.0685272216797	1099.818725585938	-358.7691040039062	34.14339065551758	913.2920532226562	-390.2859497070312	3.657308101654053	883.6024169921875	-316.8049621582031	-68.26676940917969	1034.854858398438	-286.1221313476562	72.37697601318359	725.6775512695312	-425.4324340820312	91.38902282714844	799.457763671875	-401.5316772460938	53.332763671875	785.0773315429688	-341.4230651855469	-136.1631622314453	1647.443725585938	-497.3062438964844	57.98189926147461	1703.244384765625	-600.9994506835938	64.20590972900391	1694.984130859375	-501.7620849609375	-100.0744247436523	1665.522827148438	-631.45703125	-189.5276336669922	977.684326171875	-749.5203857421875	-137.9587097167969	980.786376953125	-386.2326049804688	-46.87031936645508	1025.046508789062	-437.2828979492188	-83.8277587890625	1018.57080078125	-714.8142700195312	7.559243679046631	524.7071533203125	-775.43212890625	-49.10127258300781	659.3668212890625	-785.9989013671875	-211.9278411865234	94.94129943847656	-837.4496459960938	-97.77507781982422	325.2727661132812	-813.685546875	0.007198505103588104	54.01517105102539	-840.01220703125	-55.63460540771484	47.06241226196289	-782.846923828125	-98.43745422363281	71.16130828857422	-886.565673828125	-257.232666015625	104.8514938354492	-773.0735473632812	-111.8191680908203	495.9938659667969	-508.5159606933594	-80.14973449707031	752.7758178710938	-419.4781494140625	-225.8358001708984	31.69771575927734	-596.5695190429688	-116.6143798828125	379.3823547363281	-549.3214721679688	-28.84371566772461	41.6150016784668	-684.7949829101562	-92.98516845703125	37.67690658569336	-715.0363159179688	-112.137336730957	35.64828109741211	-596.3211669921875	-298.1416625976562	30.48471832275391	-640.3385009765625	
417	4.16	-244.7072143554688	1026.84228515625	-478.8580932617188	-263.4601440429688	1034.146118164062	-597.7604370117188	-255.7937622070312	1120.204345703125	-543.4910888671875	1.615708827972412	1290.922607421875	-592.6036376953125	-246.8762817382812	1246.363891601562	-528.403076171875	-169.2618560791016	1502.854858398438	-534.0755615234375	-15.36678028106689	1409.919555664062	-580.634521484375	-233.6170501708984	1365.493530273438	-447.37548828125	-219.6800079345703	1471.384765625	-635.4269409179688	-149.2921600341797	1471.126708984375	-715.3805541992188	-219.4358825683594	1361.194580078125	-782.2528686523438	-257.9202880859375	1154.272094726562	-805.9826049804688	-312.245849609375	1152.2607421875	-737.4638061523438	-218.707763671875	900.837158203125	-773.931884765625	-268.6612548828125	897.4105224609375	-841.9088134765625	-267.8810729980469	1045.931274414062	-823.824462890625	-268.8994445800781	709.376708984375	-786.8016967773438	-277.0503540039062	807.70361328125	-842.1090087890625	-225.0736236572266	793.221923828125	-800.7118530273438	-72.58551025390625	1451.019775390625	-388.2057189941406	-77.86603546142578	1384.630004882812	-319.8241271972656	-98.72830200195312	1102.62841796875	-284.0325317382812	-157.125244140625	1099.9208984375	-360.0764465332031	38.59991455078125	913.4046020507812	-389.7304382324219	7.527190685272217	883.7186889648438	-316.5273742675781	-64.74196624755859	1034.928344726562	-286.5021362304688	77.12332153320312	725.7689208984375	-424.6047668457031	95.94034576416016	799.5513916015625	-400.5170288085938	57.38965606689453	785.2009887695312	-340.7093811035156	-130.1324920654297	1647.395141601562	-498.6271057128906	65.19554138183594	1702.979125976562	-600.0422973632812	70.32703399658203	1694.821044921875	-500.7678833007812	-92.46307373046875	1665.3408203125	-632.3345947265625	-181.0239562988281	977.6764526367188	-751.2203369140625	-134.8920135498047	980.5999145507812	-387.2825012207031	-42.8186149597168	1024.845458984375	-436.8760681152344	-75.53722381591797	1018.679748535156	-714.8143310546875	19.00997543334961	525.798583984375	-772.6651000976562	-38.63265609741211	659.9503784179688	-784.7537231445312	-181.6450958251953	87.81700897216797	-841.3935546875	-77.75074768066406	322.5158081054688	-814.2462158203125	31.40719604492188	54.38959503173828	-836.0944213867188	-25.93077659606934	45.79000473022461	-781.1002807617188	-65.61740875244141	68.09864044189453	-886.2257080078125	-229.7294921875	96.13876342773438	-778.7754516601562	-109.9160842895508	495.6253967285156	-508.6880187988281	-77.33818817138672	752.361328125	-419.902587890625	-225.8878479003906	31.74787521362305	-596.621337890625	-115.0211181640625	379.0116271972656	-549.3963012695312	-28.79449653625488	41.48899841308594	-684.9398193359375	-93.02582550048828	37.53249740600586	-714.9937133789062	-112.1124572753906	35.59116363525391	-596.2509765625	-298.2040710449219	30.66360855102539	-640.3636474609375	
